<?xml version="1.0" encoding="UTF-8" standalone="no"?>
<!DOCTYPE svg PUBLIC "-//W3C//DTD SVG 1.1//EN" "http://www.w3.org/Graphics/SVG/1.1/DTD/svg11.dtd">
<svg version="1.1" xmlns="http://www.w3.org/2000/svg" xmlns:xlink="http://www.w3.org/1999/xlink" preserveAspectRatio="xMidYMid meet" viewBox="0 0 640 640" width="640" height="640"><defs><path d="M640.64 0C640.64 0 640.64 0 640.64 0C640.64 384 640.64 597.33 640.64 640C640.64 640 640.64 640 640.64 640C256.64 640 43.31 640 0.64 640C0.64 640 0.64 640 0.64 640C0.64 256 0.64 42.67 0.64 0C0.64 0 0.64 0 0.64 0C384.64 0 597.97 0 640.64 0Z" id="abmUenNBxm"></path><path d="M391.5 312.99C391.88 306.85 389.98 301.79 386.19 298.18C380.11 292.04 370.23 290.95 363.01 290.95C362.82 290.95 361.3 290.95 361.11 290.95C369.85 281.92 382.01 238.58 382.39 225.57C385.81 222.68 381.25 245.44 380.87 235.69C380.49 226.29 383.91 225.21 382.01 225.21C381.93 225.21 381.55 225.21 380.87 225.21C374.04 216.11 370.68 211.05 370.79 210.04C371.93 190.53 372.89 184.39 367.19 182.59C367.95 179.33 366.81 176.81 365.67 175.36C359.97 166.69 339.07 164.89 322.73 164.89C322.01 164.89 316.23 164.89 315.51 164.89C289.67 164.89 282.45 177.17 280.55 182.22C258.89 184.39 260.03 204.98 260.41 214.74C260.41 215.17 260.41 218.64 260.41 219.07C260.41 221.24 260.41 223.4 260.79 225.57C258.13 225.57 260.41 226.66 260.41 235.69C260.03 245.44 263.07 228.89 266.49 231.78C267.25 244.06 272.95 281.56 280.93 290.23C280.67 290.23 278.54 290.23 278.27 290.23C271.05 290.23 261.17 291.32 255.1 297.46C251.3 301.07 249.4 306.13 249.78 312.27C249.78 315.16 250.54 317.69 251.3 320.58C220.9 329.97 200 357.42 200 387.76C200 388.63 200 392.97 200 400.77L441.28 400.77C441.28 392.97 441.28 388.63 441.28 387.76C441.28 358.14 420.38 330.69 389.98 321.3C390.74 318.41 391.5 315.88 391.5 312.99ZM352.75 298.54C352.75 305.04 351.61 317.32 343.63 325.63C338.31 331.77 330.71 335.02 320.83 335.39C310.95 334.66 303.35 331.41 298.03 325.63C290.05 316.96 288.91 304.32 288.91 297.82C298.79 305.76 310.95 310.46 321.59 310.46C331.09 310.46 342.49 306.13 352.75 298.54ZM285.11 188C285.34 186.7 285.47 185.98 285.49 185.84C285.49 185.84 288.53 170.67 315.51 170.67C316.23 170.67 322.01 170.67 322.73 170.67C343.25 170.67 357.69 173.56 361.11 178.61C361.87 179.33 362.25 181.14 361.11 183.67C361.01 183.91 360.5 185.11 359.59 187.28C361.87 187.5 363.13 187.62 363.39 187.64C364.15 187.64 377.83 189.09 376.69 210.04C376.56 211.05 375.93 216.11 374.79 225.21C370 226.94 367.34 227.91 366.81 228.1C364.91 225.93 362.63 225.21 361.11 224.85C358.45 224.49 354.65 224.13 350.47 224.13C343.25 224.13 336.03 224.85 335.65 224.85C330.33 225.57 326.53 227.38 324.63 230.63C324.63 230.99 324.25 231.35 324.25 231.35C323.64 231.35 318.78 231.35 318.17 231.35C318.17 230.99 317.79 230.63 317.79 230.63C315.89 227.38 312.47 225.57 306.77 224.85C306.39 224.85 299.55 224.13 291.95 224.13C287.39 224.13 283.97 224.49 281.31 224.85C279.79 225.21 277.13 226.29 275.61 228.1C274.7 227.74 267.41 224.85 266.49 224.49C266.11 223.04 266.11 221.24 266.11 219.79C266.11 219.32 266.11 215.57 266.11 215.1C265.35 201.37 266.49 188.73 282.83 188C283.14 188 283.9 188 285.11 188ZM363.39 240.38C362.25 247.61 361.87 249.05 357.69 250.5C357.69 250.5 353.13 251.22 348.19 251.22C342.49 251.22 338.31 250.14 336.03 247.97C335.27 246.88 332.61 242.19 330.33 236.77C330.33 236.77 329.19 234.6 330.33 232.8C331.09 231.35 333.37 230.27 336.79 229.91C336.79 229.91 344.01 229.18 350.85 229.18C355.03 229.18 358.07 229.55 360.35 229.91C361.11 230.27 364.91 231.35 363.77 237.49C363.69 238.07 363.42 240.09 363.39 240.38ZM307.15 248.33C304.87 250.5 300.69 251.58 294.99 251.58C290.05 251.58 285.87 250.86 285.87 250.86C281.69 249.77 281.31 248.33 279.79 240.74C279.76 240.45 279.45 238.14 279.41 237.85C278.27 231.71 282.07 230.63 282.83 230.27C285.11 229.91 288.53 229.55 292.71 229.55C299.93 229.55 306.77 230.27 306.77 230.27C310.19 230.63 312.47 231.71 313.23 233.16C313.99 234.6 312.85 236.77 312.85 237.13C310.57 242.55 307.91 247.25 307.15 248.33ZM271.05 255.19C267.25 252.3 257.75 243.63 257.75 236.41C257.75 231.71 260.03 231.71 261.17 231.71C262.69 231.71 264.59 230.99 265.35 229.91C266.15 230.2 272.54 232.51 273.33 232.8C272.95 234.24 272.95 236.05 273.33 238.21C273.37 238.5 273.68 240.82 273.71 241.1C274.85 248.33 275.61 253.03 283.97 255.55C284.35 255.55 288.91 256.64 294.61 256.64C302.21 256.64 307.91 254.83 310.95 251.58C310.99 251.54 311.29 251.26 311.33 251.22C311.33 250.86 315.13 245.44 317.79 239.3C317.79 238.94 318.55 238.21 318.55 236.77C319.08 236.77 323.34 236.77 323.87 236.77C324.25 238.21 324.63 238.94 324.63 238.94C327.29 245.44 330.71 250.86 331.09 251.22C331.13 251.26 331.43 251.54 331.47 251.58C334.89 254.83 340.21 256.64 347.81 256.64C353.51 256.64 358.07 255.55 358.45 255.55C366.43 253.39 367.19 248.33 368.33 241.1C368.36 240.82 368.67 238.5 368.71 238.21C369.09 236.05 369.09 234.24 368.71 232.8C369.47 232.51 375.55 230.2 376.31 229.91C377.07 230.27 377.83 230.63 378.97 230.63C379.23 230.63 381.36 230.63 381.63 230.63C382.77 230.63 384.67 230.63 384.67 235.33C384.67 242.55 375.17 251.22 371.37 254.11C371.29 254.16 370.91 254.4 370.23 254.83C370.23 255.7 370.23 256.18 370.23 256.28C370.23 283.01 340.59 304.68 320.83 304.68C298.79 304.68 272.19 283.37 271.43 257C271.48 256.93 271.74 256.57 272.19 255.92C271.51 255.48 271.13 255.24 271.05 255.19ZM278.65 296.37C280.55 296.37 282.07 296.37 283.59 296.73C283.21 302.87 283.97 318.41 293.85 329.61C300.31 336.83 309.43 340.8 321.21 341.53C332.61 340.8 341.73 336.83 348.19 329.61C358.07 318.41 358.83 302.87 358.45 296.73C363.77 296.37 375.93 296.01 382.01 302.15C384.67 304.68 385.81 308.29 385.81 312.99C385.43 320.21 381.63 326.35 378.59 329.97C374.41 335.02 367.19 342.25 356.17 347.67C345.91 353.09 333.37 355.98 320.83 355.98C307.91 355.98 295.75 353.09 285.49 347.67C274.47 341.89 267.25 335.02 263.07 329.97C260.03 326.35 256.24 320.21 255.86 312.99C255.86 307.93 256.99 304.32 259.65 301.79C264.21 297.1 272.57 296.37 278.65 296.37ZM206.08 396.07C206.08 391.52 206.08 388.99 206.08 388.49C206.08 359.95 225.84 334.66 253.96 325.99C255.1 328.52 256.62 330.69 258.51 332.86C263.07 338.28 271.05 345.86 282.83 352C294.23 357.78 307.15 361.03 320.83 361.03C334.51 361.03 347.81 357.78 358.83 352C370.61 345.86 378.59 338.28 383.15 332.86C385.05 330.69 386.57 328.52 387.71 325.99C415.82 334.66 435.58 359.95 435.58 388.49C435.58 388.99 435.58 391.52 435.58 396.07L206.08 396.07Z" id="dZpu594WT"></path><path d="M269.58 265L262.33 240.01L236.24 238.7L228.99 267.63L246.39 289.99L273.93 299.19L300.03 295.25" id="iJ5jbZG9B"></path><path d="M279.01 259.08C279.01 272.87 267.31 284.07 252.91 284.07C238.51 284.07 226.81 272.87 226.81 259.08C226.81 245.29 238.51 234.09 252.91 234.09C267.31 234.09 279.01 245.29 279.01 259.08Z" id="c1C4mV4Lcr"></path><path d="M221.74 224.49L268.13 224.49L268.13 263.95L221.74 263.95L221.74 224.49Z" id="bSjwMqWh1"></path><path d="M293.51 272.89C293.51 280.51 287.01 286.7 279.01 286.7C271.01 286.7 264.51 280.51 264.51 272.89C264.51 265.27 271.01 259.08 279.01 259.08C287.01 259.08 293.51 265.27 293.51 272.89Z" id="c32Pppf7Lo"></path><path d="M370.24 218.42L441.28 218.42L441.28 276.15L370.24 276.15L370.24 218.42Z" id="anHkLzgtR"></path><path d="M326.26 150C297.25 150 264.22 161.01 260.27 185.22C257.11 206.55 261.79 235.79 264.51 244.22C265.18 254.46 265.7 259.64 265.87 262.95C268.02 281.17 293.83 309.51 317.96 309.51C346.25 309.51 368.05 283.58 372.81 268.21C374.08 263.23 377.48 249.1 378.09 239.38C378.28 239.07 378.41 239.06 378.47 238.7C380.95 223.21 380.9 172.16 367.17 163.97C356.39 157.55 343.15 150 326.26 150ZM270.49 262.51C270.34 259.5 269.82 251.5 269.22 242.26C269.35 242.04 269.49 241.81 269.55 241.55C270.03 239.45 273.89 222.59 274.37 220.49C282.16 221.56 289.66 221.46 296.69 221.46C296.69 221.46 296.69 221.46 296.69 221.46C334.96 221.46 352.96 206.6 360.46 196.96C361.54 200.96 370.12 232.92 371.2 236.91C370.62 246.99 369.77 256.82 368.54 261.71C363.7 277.3 341.35 301.02 318.69 301.02C296.61 301.02 272.15 276.55 270.49 262.51Z" id="a1Jrd0fRHS"></path></defs><g><g><g><use xlink:href="#abmUenNBxm" opacity="1" fill="#4c1045" fill-opacity="1"></use><g><use xlink:href="#abmUenNBxm" opacity="1" fill-opacity="0" stroke="#000000" stroke-width="1" stroke-opacity="0"></use></g></g><g><use xlink:href="#dZpu594WT" opacity="1" fill="#cf9ec3" fill-opacity="1"></use><g><use xlink:href="#dZpu594WT" opacity="1" fill-opacity="0" stroke="#000000" stroke-width="0" stroke-opacity="0"></use></g></g><g><g><use xlink:href="#iJ5jbZG9B" opacity="1" fill-opacity="0" stroke="#000000" stroke-width="10" stroke-opacity="0"></use></g></g><g><use xlink:href="#c1C4mV4Lcr" opacity="1" fill="#4c1045" fill-opacity="1"></use></g><g><use xlink:href="#bSjwMqWh1" opacity="1" fill="#4c1045" fill-opacity="1"></use></g><g><use xlink:href="#c32Pppf7Lo" opacity="1" fill="#4c1045" fill-opacity="1"></use></g><g><use xlink:href="#anHkLzgtR" opacity="1" fill="#4c1045" fill-opacity="1"></use></g><g><use xlink:href="#a1Jrd0fRHS" opacity="1" fill="#cf9ec3" fill-opacity="1"></use><g><use xlink:href="#a1Jrd0fRHS" opacity="1" fill-opacity="0" stroke="#000000" stroke-width="1" stroke-opacity="0"></use></g></g></g></g></svg>